<?xml version="1.0" standalone="no"?>
<!DOCTYPE svg PUBLIC "-//W3C//DTD SVG 1.1//EN"
"http://www.w3.org/Graphics/SVG/1.1/DTD/svg11.dtd">

<svg width="310" height="676" view_box="0 0 310 676"
xmlns="http://www.w3.org/2000/svg"
xmlns:link="http://www.w3.org/1999/xlink">\n\n<desc>Généré par Mocodo 2.3.7 le Mon, 22 Feb 2021 00:48:39</desc>

<rect id="frame" x="0" y="0" width="310" height="676" fill="#ffffbf" stroke="none" stroke-width="0"/>

<!-- Association 2_PEUT CONTENIR -->
<line x1="236" y1="599" x2="236" y2="481" stroke="#f46d43" stroke-width="2"/>
<text x="241.0" y="523" fill="#4575b4" font-family="Verdana" font-size="12">0,N</text>
<line x1="74" y1="312" x2="236" y2="481" stroke="#f46d43" stroke-width="2"/>
<text x="136" y="370.322531903" fill="#4575b4" font-family="Verdana" font-size="12">0,N</text>
<g id="association-2_PEUT CONTENIR">
	<path d="M 287 456 a 14 14 90 0 1 14 14 V 481 h -130 V 470 a 14 14 90 0 1 14 -14" fill="#fdae61" stroke="#fdae61" stroke-width="0"/>
	<path d="M 301 481.0 v 11 a 14 14 90 0 1 -14 14 H 185 a 14 14 90 0 1 -14 -14 V 481.0 H 130" fill="#fee090" stroke="#fee090" stroke-width="0"/>
	<rect x="171" y="456" width="130" height="50" fill="none" rx="14" stroke="#f46d43" stroke-width="2"/>
	<line x1="171" y1="481" x2="301" y2="481" stroke="#f46d43" stroke-width="1"/>
	<text x="178" y="473.7" fill="#000000" font-family="Verdana" font-size="12">2_PEUT CONTENIR</text>
</g>

<!-- Association CREE -->
<line x1="74" y1="312" x2="74" y2="143" stroke="#f46d43" stroke-width="2"/>
<text x="79.0" y="185" fill="#4575b4" font-family="Verdana" font-size="12">0,1</text>
<line x1="74" y1="51" x2="74" y2="143" stroke="#f46d43" stroke-width="2"/>
<text x="79.0" y="110" fill="#4575b4" font-family="Verdana" font-size="12">0,N</text>
<g id="association-CREE">
	<path d="M 84 118 a 14 14 90 0 1 14 14 V 143 h -48 V 132 a 14 14 90 0 1 14 -14" fill="#fdae61" stroke="#fdae61" stroke-width="0"/>
	<path d="M 98 143.0 v 11 a 14 14 90 0 1 -14 14 H 64 a 14 14 90 0 1 -14 -14 V 143.0 H 48" fill="#fee090" stroke="#fee090" stroke-width="0"/>
	<rect x="50" y="118" width="48" height="50" fill="none" rx="14" stroke="#f46d43" stroke-width="2"/>
	<line x1="50" y1="143" x2="98" y2="143" stroke="#f46d43" stroke-width="1"/>
	<text x="57" y="135.7" fill="#000000" font-family="Verdana" font-size="12">CREE</text>
</g>

<!-- Association 1_PEUT CONTENIR -->
<line x1="74" y1="599" x2="74" y2="481" stroke="#f46d43" stroke-width="2"/>
<text x="79.0" y="523" fill="#4575b4" font-family="Verdana" font-size="12">0,N</text>
<line x1="74" y1="312" x2="74" y2="481" stroke="#f46d43" stroke-width="2"/>
<text x="48.0" y="448" fill="#4575b4" font-family="Verdana" font-size="12">0,1</text>
<g id="association-1_PEUT CONTENIR">
	<path d="M 125 456 a 14 14 90 0 1 14 14 V 481 h -130 V 470 a 14 14 90 0 1 14 -14" fill="#fdae61" stroke="#fdae61" stroke-width="0"/>
	<path d="M 139 481.0 v 11 a 14 14 90 0 1 -14 14 H 23 a 14 14 90 0 1 -14 -14 V 481.0 H 130" fill="#fee090" stroke="#fee090" stroke-width="0"/>
	<rect x="9" y="456" width="130" height="50" fill="none" rx="14" stroke="#f46d43" stroke-width="2"/>
	<line x1="9" y1="481" x2="139" y2="481" stroke="#f46d43" stroke-width="1"/>
	<text x="16" y="473.7" fill="#000000" font-family="Verdana" font-size="12">1_PEUT CONTENIR</text>
</g>

<!-- Entity PROJECT -->
<g id="entity-PROJECT">
	<g id="frame-PROJECT">
		<rect x="17" y="193" width="114" height="25" fill="#abd9e9" stroke="#abd9e9" stroke-width="0"/>
		<rect x="17" y="218.0" width="114" height="213" fill="#e0f3f8" stroke="#e0f3f8" stroke-width="0"/>
		<rect x="17" y="193" width="114" height="238" fill="none" stroke="#74add1" stroke-width="2"/>
		<line x1="17" y1="218" x2="131" y2="218" stroke="#74add1" stroke-width="1"/>
	</g>
	<text x="46" y="210.7" fill="#000000" font-family="Verdana" font-size="12">PROJECT</text>
	<text x="22" y="235.7" fill="#000000" font-family="Verdana" font-size="12">projectId</text>
	<line x1="22" y1="238" x2="78" y2="238" stroke="#000000" stroke-width="1"/>
	<text x="22" y="252.7" fill="#000000" font-family="Verdana" font-size="12">title</text>
	<text x="22" y="269.7" fill="#000000" font-family="Verdana" font-size="12">content</text>
	<text x="22" y="286.7" fill="#000000" font-family="Verdana" font-size="12">project reference</text>
	<text x="22" y="303.7" fill="#000000" font-family="Verdana" font-size="12">moa</text>
	<text x="22" y="320.8" fill="#000000" font-family="Verdana" font-size="12">moe</text>
	<text x="22" y="337.8" fill="#000000" font-family="Verdana" font-size="12">date</text>
	<text x="22" y="354.8" fill="#000000" font-family="Verdana" font-size="12">mission</text>
	<text x="22" y="371.8" fill="#000000" font-family="Verdana" font-size="12">performance</text>
	<text x="22" y="388.8" fill="#000000" font-family="Verdana" font-size="12">size</text>
	<text x="22" y="405.8" fill="#000000" font-family="Verdana" font-size="12">cost</text>
	<text x="22" y="422.8" fill="#000000" font-family="Verdana" font-size="12">role</text>
</g>

<!-- Entity PROFIL PICTURE -->
<g id="entity-PROFIL PICTURE">
	<g id="frame-PROFIL PICTURE">
		<rect x="18" y="531" width="112" height="25" fill="#abd9e9" stroke="#abd9e9" stroke-width="0"/>
		<rect x="18" y="556.0" width="112" height="111" fill="#e0f3f8" stroke="#e0f3f8" stroke-width="0"/>
		<rect x="18" y="531" width="112" height="136" fill="none" stroke="#74add1" stroke-width="2"/>
		<line x1="18" y1="556" x2="130" y2="556" stroke="#74add1" stroke-width="1"/>
	</g>
	<text x="23" y="548.7" fill="#000000" font-family="Verdana" font-size="12">PROFIL PICTURE</text>
	<text x="23" y="573.7" fill="#000000" font-family="Verdana" font-size="12">profilePictureId</text>
	<line x1="23" y1="576" x2="116" y2="576" stroke="#000000" stroke-width="1"/>
	<text x="23" y="590.7" fill="#000000" font-family="Verdana" font-size="12">key</text>
	<text x="23" y="607.8" fill="#000000" font-family="Verdana" font-size="12">filename</text>
	<text x="23" y="624.8" fill="#000000" font-family="Verdana" font-size="12">content_type</text>
	<text x="23" y="641.8" fill="#000000" font-family="Verdana" font-size="12">metadata</text>
	<text x="23" y="658.8" fill="#000000" font-family="Verdana" font-size="12">byte_size</text>
</g>

<!-- Entity CONTENT PICTURE -->
<g id="entity-CONTENT PICTURE">
	<g id="frame-CONTENT PICTURE">
		<rect x="173" y="531" width="126" height="25" fill="#abd9e9" stroke="#abd9e9" stroke-width="0"/>
		<rect x="173" y="556.0" width="126" height="111" fill="#e0f3f8" stroke="#e0f3f8" stroke-width="0"/>
		<rect x="173" y="531" width="126" height="136" fill="none" stroke="#74add1" stroke-width="2"/>
		<line x1="173" y1="556" x2="299" y2="556" stroke="#74add1" stroke-width="1"/>
	</g>
	<text x="178" y="548.7" fill="#000000" font-family="Verdana" font-size="12">CONTENT PICTURE</text>
	<text x="178" y="573.7" fill="#000000" font-family="Verdana" font-size="12">contentPictureId</text>
	<line x1="178" y1="576" x2="278" y2="576" stroke="#000000" stroke-width="1"/>
	<text x="178" y="590.7" fill="#000000" font-family="Verdana" font-size="12">key</text>
	<text x="178" y="607.8" fill="#000000" font-family="Verdana" font-size="12">filename</text>
	<text x="178" y="624.8" fill="#000000" font-family="Verdana" font-size="12">content_type</text>
	<text x="178" y="641.8" fill="#000000" font-family="Verdana" font-size="12">metadata</text>
	<text x="178" y="658.8" fill="#000000" font-family="Verdana" font-size="12">byte_size</text>
</g>

<!-- Entity USER -->
<g id="entity-USER">
	<g id="frame-USER">
		<rect x="40" y="9" width="68" height="25" fill="#abd9e9" stroke="#abd9e9" stroke-width="0"/>
		<rect x="40" y="34.0" width="68" height="59" fill="#e0f3f8" stroke="#e0f3f8" stroke-width="0"/>
		<rect x="40" y="9" width="68" height="84" fill="none" stroke="#74add1" stroke-width="2"/>
		<line x1="40" y1="34" x2="108" y2="34" stroke="#74add1" stroke-width="1"/>
	</g>
	<text x="57" y="26.7" fill="#000000" font-family="Verdana" font-size="12">USER</text>
	<text x="45" y="51.8" fill="#000000" font-family="Verdana" font-size="12">userId</text>
	<line x1="45" y1="54" x2="85" y2="54" stroke="#000000" stroke-width="1"/>
	<text x="45" y="68.8" fill="#000000" font-family="Verdana" font-size="12">name</text>
	<text x="45" y="85.8" fill="#000000" font-family="Verdana" font-size="12">password</text>
</g>
</svg>