<?xml version="1.0" standalone="no"?>
<!DOCTYPE svg PUBLIC "-//W3C//DTD SVG 1.1//EN"
"http://www.w3.org/Graphics/SVG/1.1/DTD/svg11.dtd">

<svg width="958" height="676" view_box="0 0 958 676"
xmlns="http://www.w3.org/2000/svg"
xmlns:link="http://www.w3.org/1999/xlink">\n\n<desc>Généré par Mocodo 2.3.7 le Mon, 22 Feb 2021 01:09:24</desc>

<rect id="frame" x="0" y="0" width="958" height="676" fill="#ffffbf" stroke="none" stroke-width="0"/>

<!-- Association 4_PEUT CONTENIR -->
<line x1="560" y1="599" x2="560" y2="481" stroke="#f46d43" stroke-width="2"/>
<text x="565.0" y="523" fill="#4575b4" font-family="Verdana" font-size="12">0,N</text>
<line x1="398" y1="312" x2="560" y2="481" stroke="#f46d43" stroke-width="2"/>
<text x="460" y="370.322531903" fill="#4575b4" font-family="Verdana" font-size="12">0,1</text>
<g id="association-4_PEUT CONTENIR">
	<path d="M 611 456 a 14 14 90 0 1 14 14 V 481 h -130 V 470 a 14 14 90 0 1 14 -14" fill="#fdae61" stroke="#fdae61" stroke-width="0"/>
	<path d="M 625 481.0 v 11 a 14 14 90 0 1 -14 14 H 509 a 14 14 90 0 1 -14 -14 V 481.0 H 130" fill="#fee090" stroke="#fee090" stroke-width="0"/>
	<rect x="495" y="456" width="130" height="50" fill="none" rx="14" stroke="#f46d43" stroke-width="2"/>
	<line x1="495" y1="481" x2="625" y2="481" stroke="#f46d43" stroke-width="1"/>
	<text x="502" y="473.7" fill="#000000" font-family="Verdana" font-size="12">4_PEUT CONTENIR</text>
</g>

<!-- Association 3_PEUT CONTENIR -->
<line x1="398" y1="599" x2="398" y2="481" stroke="#f46d43" stroke-width="2"/>
<text x="403.0" y="523" fill="#4575b4" font-family="Verdana" font-size="12">0,N</text>
<line x1="398" y1="312" x2="398" y2="481" stroke="#f46d43" stroke-width="2"/>
<text x="403.0" y="448" fill="#4575b4" font-family="Verdana" font-size="12">0,1</text>
<g id="association-3_PEUT CONTENIR">
	<path d="M 449 456 a 14 14 90 0 1 14 14 V 481 h -130 V 470 a 14 14 90 0 1 14 -14" fill="#fdae61" stroke="#fdae61" stroke-width="0"/>
	<path d="M 463 481.0 v 11 a 14 14 90 0 1 -14 14 H 347 a 14 14 90 0 1 -14 -14 V 481.0 H 130" fill="#fee090" stroke="#fee090" stroke-width="0"/>
	<rect x="333" y="456" width="130" height="50" fill="none" rx="14" stroke="#f46d43" stroke-width="2"/>
	<line x1="333" y1="481" x2="463" y2="481" stroke="#f46d43" stroke-width="1"/>
	<text x="340" y="473.7" fill="#000000" font-family="Verdana" font-size="12">3_PEUT CONTENIR</text>
</g>

<!-- Association 1_PEUT CONTENIR -->
<line x1="74" y1="599" x2="74" y2="481" stroke="#f46d43" stroke-width="2"/>
<text x="79.0" y="523" fill="#4575b4" font-family="Verdana" font-size="12">0,N</text>
<line x1="398" y1="312" x2="74" y2="481" stroke="#f46d43" stroke-width="2"/>
<text x="315" y="337.803237971" fill="#4575b4" font-family="Verdana" font-size="12">0,1</text>
<g id="association-1_PEUT CONTENIR">
	<path d="M 125 456 a 14 14 90 0 1 14 14 V 481 h -130 V 470 a 14 14 90 0 1 14 -14" fill="#fdae61" stroke="#fdae61" stroke-width="0"/>
	<path d="M 139 481.0 v 11 a 14 14 90 0 1 -14 14 H 23 a 14 14 90 0 1 -14 -14 V 481.0 H 130" fill="#fee090" stroke="#fee090" stroke-width="0"/>
	<rect x="9" y="456" width="130" height="50" fill="none" rx="14" stroke="#f46d43" stroke-width="2"/>
	<line x1="9" y1="481" x2="139" y2="481" stroke="#f46d43" stroke-width="1"/>
	<text x="16" y="473.7" fill="#000000" font-family="Verdana" font-size="12">1_PEUT CONTENIR</text>
</g>

<!-- Association 6_PEUT CONTENIR -->
<line x1="884" y1="599" x2="884" y2="481" stroke="#f46d43" stroke-width="2"/>
<text x="889.0" y="523" fill="#4575b4" font-family="Verdana" font-size="12">0,N</text>
<line x1="398" y1="312" x2="884" y2="481" stroke="#f46d43" stroke-width="2"/>
<text x="460" y="326.535701761" fill="#4575b4" font-family="Verdana" font-size="12">0,1</text>
<g id="association-6_PEUT CONTENIR">
	<path d="M 935 456 a 14 14 90 0 1 14 14 V 481 h -130 V 470 a 14 14 90 0 1 14 -14" fill="#fdae61" stroke="#fdae61" stroke-width="0"/>
	<path d="M 949 481.0 v 11 a 14 14 90 0 1 -14 14 H 833 a 14 14 90 0 1 -14 -14 V 481.0 H 130" fill="#fee090" stroke="#fee090" stroke-width="0"/>
	<rect x="819" y="456" width="130" height="50" fill="none" rx="14" stroke="#f46d43" stroke-width="2"/>
	<line x1="819" y1="481" x2="949" y2="481" stroke="#f46d43" stroke-width="1"/>
	<text x="826" y="473.7" fill="#000000" font-family="Verdana" font-size="12">6_PEUT CONTENIR</text>
</g>

<!-- Association 5_PEUT CONTENIR -->
<line x1="722" y1="599" x2="722" y2="481" stroke="#f46d43" stroke-width="2"/>
<text x="727.0" y="523" fill="#4575b4" font-family="Verdana" font-size="12">0,N</text>
<line x1="398" y1="312" x2="722" y2="481" stroke="#f46d43" stroke-width="2"/>
<text x="460" y="337.803237971" fill="#4575b4" font-family="Verdana" font-size="12">0,1</text>
<g id="association-5_PEUT CONTENIR">
	<path d="M 773 456 a 14 14 90 0 1 14 14 V 481 h -130 V 470 a 14 14 90 0 1 14 -14" fill="#fdae61" stroke="#fdae61" stroke-width="0"/>
	<path d="M 787 481.0 v 11 a 14 14 90 0 1 -14 14 H 671 a 14 14 90 0 1 -14 -14 V 481.0 H 130" fill="#fee090" stroke="#fee090" stroke-width="0"/>
	<rect x="657" y="456" width="130" height="50" fill="none" rx="14" stroke="#f46d43" stroke-width="2"/>
	<line x1="657" y1="481" x2="787" y2="481" stroke="#f46d43" stroke-width="1"/>
	<text x="664" y="473.7" fill="#000000" font-family="Verdana" font-size="12">5_PEUT CONTENIR</text>
</g>

<!-- Association 2_PEUT CONTENIR -->
<line x1="236" y1="599" x2="236" y2="481" stroke="#f46d43" stroke-width="2"/>
<text x="241.0" y="523" fill="#4575b4" font-family="Verdana" font-size="12">0,N</text>
<line x1="398" y1="312" x2="236" y2="481" stroke="#f46d43" stroke-width="2"/>
<text x="315" y="370.322531903" fill="#4575b4" font-family="Verdana" font-size="12">0,1</text>
<g id="association-2_PEUT CONTENIR">
	<path d="M 287 456 a 14 14 90 0 1 14 14 V 481 h -130 V 470 a 14 14 90 0 1 14 -14" fill="#fdae61" stroke="#fdae61" stroke-width="0"/>
	<path d="M 301 481.0 v 11 a 14 14 90 0 1 -14 14 H 185 a 14 14 90 0 1 -14 -14 V 481.0 H 130" fill="#fee090" stroke="#fee090" stroke-width="0"/>
	<rect x="171" y="456" width="130" height="50" fill="none" rx="14" stroke="#f46d43" stroke-width="2"/>
	<line x1="171" y1="481" x2="301" y2="481" stroke="#f46d43" stroke-width="1"/>
	<text x="178" y="473.7" fill="#000000" font-family="Verdana" font-size="12">2_PEUT CONTENIR</text>
</g>

<!-- Association CREE -->
<line x1="398" y1="312" x2="398" y2="143" stroke="#f46d43" stroke-width="2"/>
<text x="403.0" y="185" fill="#4575b4" font-family="Verdana" font-size="12">0,1</text>
<line x1="398" y1="51" x2="398" y2="143" stroke="#f46d43" stroke-width="2"/>
<text x="403.0" y="110" fill="#4575b4" font-family="Verdana" font-size="12">0,N</text>
<g id="association-CREE">
	<path d="M 408 118 a 14 14 90 0 1 14 14 V 143 h -48 V 132 a 14 14 90 0 1 14 -14" fill="#fdae61" stroke="#fdae61" stroke-width="0"/>
	<path d="M 422 143.0 v 11 a 14 14 90 0 1 -14 14 H 388 a 14 14 90 0 1 -14 -14 V 143.0 H 48" fill="#fee090" stroke="#fee090" stroke-width="0"/>
	<rect x="374" y="118" width="48" height="50" fill="none" rx="14" stroke="#f46d43" stroke-width="2"/>
	<line x1="374" y1="143" x2="422" y2="143" stroke="#f46d43" stroke-width="1"/>
	<text x="381" y="135.7" fill="#000000" font-family="Verdana" font-size="12">CREE</text>
</g>

<!-- Entity MIDDLE PICTURE -->
<g id="entity-MIDDLE PICTURE">
	<g id="frame-MIDDLE PICTURE">
		<rect x="502" y="531" width="116" height="25" fill="#abd9e9" stroke="#abd9e9" stroke-width="0"/>
		<rect x="502" y="556.0" width="116" height="111" fill="#e0f3f8" stroke="#e0f3f8" stroke-width="0"/>
		<rect x="502" y="531" width="116" height="136" fill="none" stroke="#74add1" stroke-width="2"/>
		<line x1="502" y1="556" x2="618" y2="556" stroke="#74add1" stroke-width="1"/>
	</g>
	<text x="507" y="548.7" fill="#000000" font-family="Verdana" font-size="12">MIDDLE PICTURE</text>
	<text x="507" y="573.7" fill="#000000" font-family="Verdana" font-size="12">middlePictureId</text>
	<line x1="507" y1="576" x2="602" y2="576" stroke="#000000" stroke-width="1"/>
	<text x="507" y="590.7" fill="#000000" font-family="Verdana" font-size="12">key</text>
	<text x="507" y="607.8" fill="#000000" font-family="Verdana" font-size="12">filename</text>
	<text x="507" y="624.8" fill="#000000" font-family="Verdana" font-size="12">content_type</text>
	<text x="507" y="641.8" fill="#000000" font-family="Verdana" font-size="12">metadata</text>
	<text x="507" y="658.8" fill="#000000" font-family="Verdana" font-size="12">byte_size</text>
</g>

<!-- Entity HEAD PICTURE -->
<g id="entity-HEAD PICTURE">
	<g id="frame-HEAD PICTURE">
		<rect x="185" y="531" width="102" height="25" fill="#abd9e9" stroke="#abd9e9" stroke-width="0"/>
		<rect x="185" y="556.0" width="102" height="111" fill="#e0f3f8" stroke="#e0f3f8" stroke-width="0"/>
		<rect x="185" y="531" width="102" height="136" fill="none" stroke="#74add1" stroke-width="2"/>
		<line x1="185" y1="556" x2="287" y2="556" stroke="#74add1" stroke-width="1"/>
	</g>
	<text x="190" y="548.7" fill="#000000" font-family="Verdana" font-size="12">HEAD PICTURE</text>
	<text x="190" y="573.7" fill="#000000" font-family="Verdana" font-size="12">headPictureId</text>
	<line x1="190" y1="576" x2="274" y2="576" stroke="#000000" stroke-width="1"/>
	<text x="190" y="590.7" fill="#000000" font-family="Verdana" font-size="12">key</text>
	<text x="190" y="607.8" fill="#000000" font-family="Verdana" font-size="12">filename</text>
	<text x="190" y="624.8" fill="#000000" font-family="Verdana" font-size="12">content_type</text>
	<text x="190" y="641.8" fill="#000000" font-family="Verdana" font-size="12">metadata</text>
	<text x="190" y="658.8" fill="#000000" font-family="Verdana" font-size="12">byte_size</text>
</g>

<!-- Entity PROJECT -->
<g id="entity-PROJECT">
	<g id="frame-PROJECT">
		<rect x="341" y="193" width="114" height="25" fill="#abd9e9" stroke="#abd9e9" stroke-width="0"/>
		<rect x="341" y="218.0" width="114" height="213" fill="#e0f3f8" stroke="#e0f3f8" stroke-width="0"/>
		<rect x="341" y="193" width="114" height="238" fill="none" stroke="#74add1" stroke-width="2"/>
		<line x1="341" y1="218" x2="455" y2="218" stroke="#74add1" stroke-width="1"/>
	</g>
	<text x="370" y="210.7" fill="#000000" font-family="Verdana" font-size="12">PROJECT</text>
	<text x="346" y="235.7" fill="#000000" font-family="Verdana" font-size="12">projectId</text>
	<line x1="346" y1="238" x2="402" y2="238" stroke="#000000" stroke-width="1"/>
	<text x="346" y="252.7" fill="#000000" font-family="Verdana" font-size="12">title</text>
	<text x="346" y="269.7" fill="#000000" font-family="Verdana" font-size="12">content</text>
	<text x="346" y="286.7" fill="#000000" font-family="Verdana" font-size="12">project reference</text>
	<text x="346" y="303.7" fill="#000000" font-family="Verdana" font-size="12">moa</text>
	<text x="346" y="320.8" fill="#000000" font-family="Verdana" font-size="12">moe</text>
	<text x="346" y="337.8" fill="#000000" font-family="Verdana" font-size="12">date</text>
	<text x="346" y="354.8" fill="#000000" font-family="Verdana" font-size="12">mission</text>
	<text x="346" y="371.8" fill="#000000" font-family="Verdana" font-size="12">performance</text>
	<text x="346" y="388.8" fill="#000000" font-family="Verdana" font-size="12">size</text>
	<text x="346" y="405.8" fill="#000000" font-family="Verdana" font-size="12">cost</text>
	<text x="346" y="422.8" fill="#000000" font-family="Verdana" font-size="12">role</text>
</g>

<!-- Entity BOTTOM PICTURE -->
<g id="entity-BOTTOM PICTURE">
	<g id="frame-BOTTOM PICTURE">
		<rect x="824" y="531" width="120" height="25" fill="#abd9e9" stroke="#abd9e9" stroke-width="0"/>
		<rect x="824" y="556.0" width="120" height="111" fill="#e0f3f8" stroke="#e0f3f8" stroke-width="0"/>
		<rect x="824" y="531" width="120" height="136" fill="none" stroke="#74add1" stroke-width="2"/>
		<line x1="824" y1="556" x2="944" y2="556" stroke="#74add1" stroke-width="1"/>
	</g>
	<text x="829" y="548.7" fill="#000000" font-family="Verdana" font-size="12">BOTTOM PICTURE</text>
	<text x="829" y="573.7" fill="#000000" font-family="Verdana" font-size="12">bottomPictureId</text>
	<line x1="829" y1="576" x2="927" y2="576" stroke="#000000" stroke-width="1"/>
	<text x="829" y="590.7" fill="#000000" font-family="Verdana" font-size="12">key</text>
	<text x="829" y="607.8" fill="#000000" font-family="Verdana" font-size="12">filename</text>
	<text x="829" y="624.8" fill="#000000" font-family="Verdana" font-size="12">content_type</text>
	<text x="829" y="641.8" fill="#000000" font-family="Verdana" font-size="12">metadata</text>
	<text x="829" y="658.8" fill="#000000" font-family="Verdana" font-size="12">byte_size</text>
</g>

<!-- Entity USER -->
<g id="entity-USER">
	<g id="frame-USER">
		<rect x="364" y="9" width="68" height="25" fill="#abd9e9" stroke="#abd9e9" stroke-width="0"/>
		<rect x="364" y="34.0" width="68" height="59" fill="#e0f3f8" stroke="#e0f3f8" stroke-width="0"/>
		<rect x="364" y="9" width="68" height="84" fill="none" stroke="#74add1" stroke-width="2"/>
		<line x1="364" y1="34" x2="432" y2="34" stroke="#74add1" stroke-width="1"/>
	</g>
	<text x="381" y="26.7" fill="#000000" font-family="Verdana" font-size="12">USER</text>
	<text x="369" y="51.8" fill="#000000" font-family="Verdana" font-size="12">userId</text>
	<line x1="369" y1="54" x2="409" y2="54" stroke="#000000" stroke-width="1"/>
	<text x="369" y="68.8" fill="#000000" font-family="Verdana" font-size="12">name</text>
	<text x="369" y="85.8" fill="#000000" font-family="Verdana" font-size="12">password</text>
</g>

<!-- Entity PROFIL PICTURE -->
<g id="entity-PROFIL PICTURE">
	<g id="frame-PROFIL PICTURE">
		<rect x="18" y="531" width="112" height="25" fill="#abd9e9" stroke="#abd9e9" stroke-width="0"/>
		<rect x="18" y="556.0" width="112" height="111" fill="#e0f3f8" stroke="#e0f3f8" stroke-width="0"/>
		<rect x="18" y="531" width="112" height="136" fill="none" stroke="#74add1" stroke-width="2"/>
		<line x1="18" y1="556" x2="130" y2="556" stroke="#74add1" stroke-width="1"/>
	</g>
	<text x="23" y="548.7" fill="#000000" font-family="Verdana" font-size="12">PROFIL PICTURE</text>
	<text x="23" y="573.7" fill="#000000" font-family="Verdana" font-size="12">profilePictureId</text>
	<line x1="23" y1="576" x2="116" y2="576" stroke="#000000" stroke-width="1"/>
	<text x="23" y="590.7" fill="#000000" font-family="Verdana" font-size="12">key</text>
	<text x="23" y="607.8" fill="#000000" font-family="Verdana" font-size="12">filename</text>
	<text x="23" y="624.8" fill="#000000" font-family="Verdana" font-size="12">content_type</text>
	<text x="23" y="641.8" fill="#000000" font-family="Verdana" font-size="12">metadata</text>
	<text x="23" y="658.8" fill="#000000" font-family="Verdana" font-size="12">byte_size</text>
</g>

<!-- Entity DOWN PICTURE -->
<g id="entity-DOWN PICTURE">
	<g id="frame-DOWN PICTURE">
		<rect x="668" y="531" width="108" height="25" fill="#abd9e9" stroke="#abd9e9" stroke-width="0"/>
		<rect x="668" y="556.0" width="108" height="111" fill="#e0f3f8" stroke="#e0f3f8" stroke-width="0"/>
		<rect x="668" y="531" width="108" height="136" fill="none" stroke="#74add1" stroke-width="2"/>
		<line x1="668" y1="556" x2="776" y2="556" stroke="#74add1" stroke-width="1"/>
	</g>
	<text x="673" y="548.7" fill="#000000" font-family="Verdana" font-size="12">DOWN PICTURE</text>
	<text x="673" y="573.7" fill="#000000" font-family="Verdana" font-size="12">downPictureId</text>
	<line x1="673" y1="576" x2="760" y2="576" stroke="#000000" stroke-width="1"/>
	<text x="673" y="590.7" fill="#000000" font-family="Verdana" font-size="12">key</text>
	<text x="673" y="607.8" fill="#000000" font-family="Verdana" font-size="12">filename</text>
	<text x="673" y="624.8" fill="#000000" font-family="Verdana" font-size="12">content_type</text>
	<text x="673" y="641.8" fill="#000000" font-family="Verdana" font-size="12">metadata</text>
	<text x="673" y="658.8" fill="#000000" font-family="Verdana" font-size="12">byte_size</text>
</g>

<!-- Entity UP PICTURE -->
<g id="entity-UP PICTURE">
	<g id="frame-UP PICTURE">
		<rect x="352" y="531" width="92" height="25" fill="#abd9e9" stroke="#abd9e9" stroke-width="0"/>
		<rect x="352" y="556.0" width="92" height="111" fill="#e0f3f8" stroke="#e0f3f8" stroke-width="0"/>
		<rect x="352" y="531" width="92" height="136" fill="none" stroke="#74add1" stroke-width="2"/>
		<line x1="352" y1="556" x2="444" y2="556" stroke="#74add1" stroke-width="1"/>
	</g>
	<text x="361" y="548.7" fill="#000000" font-family="Verdana" font-size="12">UP PICTURE</text>
	<text x="357" y="573.7" fill="#000000" font-family="Verdana" font-size="12">upPictureId</text>
	<line x1="357" y1="576" x2="427" y2="576" stroke="#000000" stroke-width="1"/>
	<text x="357" y="590.7" fill="#000000" font-family="Verdana" font-size="12">key</text>
	<text x="357" y="607.8" fill="#000000" font-family="Verdana" font-size="12">filename</text>
	<text x="357" y="624.8" fill="#000000" font-family="Verdana" font-size="12">content_type</text>
	<text x="357" y="641.8" fill="#000000" font-family="Verdana" font-size="12">metadata</text>
	<text x="357" y="658.8" fill="#000000" font-family="Verdana" font-size="12">byte_size</text>
</g>
</svg>