<?xml version="1.0" standalone="no"?>
<!DOCTYPE svg PUBLIC "-//W3C//DTD SVG 1.1//EN"
"http://www.w3.org/Graphics/SVG/1.1/DTD/svg11.dtd">

<svg width="310" height="624" view_box="0 0 310 624"
xmlns="http://www.w3.org/2000/svg"
xmlns:link="http://www.w3.org/1999/xlink">\n\n<desc>Généré par Mocodo 2.3.7 le Mon, 22 Feb 2021 00:15:23</desc>

<rect id="frame" x="0" y="0" width="310" height="624" fill="#ffffbf" stroke="none" stroke-width="0"/>

<!-- Association 2_PEUT CONTENIR -->
<line x1="236" y1="556" x2="236" y2="447" stroke="#f46d43" stroke-width="2"/>
<text x="241.0" y="489" fill="#4575b4" font-family="Verdana" font-size="12">0,N</text>
<line x1="74" y1="287" x2="236" y2="447" stroke="#f46d43" stroke-width="2"/>
<text x="136" y="342.305186289" fill="#4575b4" font-family="Verdana" font-size="12">0,N</text>
<g id="association-2_PEUT CONTENIR">
	<path d="M 287 422 a 14 14 90 0 1 14 14 V 447 h -130 V 436 a 14 14 90 0 1 14 -14" fill="#fdae61" stroke="#fdae61" stroke-width="0"/>
	<path d="M 301 447.0 v 11 a 14 14 90 0 1 -14 14 H 185 a 14 14 90 0 1 -14 -14 V 447.0 H 130" fill="#fee090" stroke="#fee090" stroke-width="0"/>
	<rect x="171" y="422" width="130" height="50" fill="none" rx="14" stroke="#f46d43" stroke-width="2"/>
	<line x1="171" y1="447" x2="301" y2="447" stroke="#f46d43" stroke-width="1"/>
	<text x="178" y="439.7" fill="#000000" font-family="Verdana" font-size="12">2_PEUT CONTENIR</text>
</g>

<!-- Association CREE -->
<line x1="74" y1="287" x2="74" y2="127" stroke="#f46d43" stroke-width="2"/>
<text x="79.0" y="169" fill="#4575b4" font-family="Verdana" font-size="12">0,1</text>
<line x1="74" y1="43" x2="74" y2="127" stroke="#f46d43" stroke-width="2"/>
<text x="79.0" y="94" fill="#4575b4" font-family="Verdana" font-size="12">0,N</text>
<g id="association-CREE">
	<path d="M 84 102 a 14 14 90 0 1 14 14 V 127 h -48 V 116 a 14 14 90 0 1 14 -14" fill="#fdae61" stroke="#fdae61" stroke-width="0"/>
	<path d="M 98 127.0 v 11 a 14 14 90 0 1 -14 14 H 64 a 14 14 90 0 1 -14 -14 V 127.0 H 48" fill="#fee090" stroke="#fee090" stroke-width="0"/>
	<rect x="50" y="102" width="48" height="50" fill="none" rx="14" stroke="#f46d43" stroke-width="2"/>
	<line x1="50" y1="127" x2="98" y2="127" stroke="#f46d43" stroke-width="1"/>
	<text x="57" y="119.7" fill="#000000" font-family="Verdana" font-size="12">CREE</text>
</g>

<!-- Association 1_PEUT CONTENIR -->
<line x1="74" y1="556" x2="74" y2="447" stroke="#f46d43" stroke-width="2"/>
<text x="79.0" y="489" fill="#4575b4" font-family="Verdana" font-size="12">0,N</text>
<line x1="74" y1="287" x2="74" y2="447" stroke="#f46d43" stroke-width="2"/>
<text x="48.0" y="414" fill="#4575b4" font-family="Verdana" font-size="12">0,1</text>
<g id="association-1_PEUT CONTENIR">
	<path d="M 125 422 a 14 14 90 0 1 14 14 V 447 h -130 V 436 a 14 14 90 0 1 14 -14" fill="#fdae61" stroke="#fdae61" stroke-width="0"/>
	<path d="M 139 447.0 v 11 a 14 14 90 0 1 -14 14 H 23 a 14 14 90 0 1 -14 -14 V 447.0 H 130" fill="#fee090" stroke="#fee090" stroke-width="0"/>
	<rect x="9" y="422" width="130" height="50" fill="none" rx="14" stroke="#f46d43" stroke-width="2"/>
	<line x1="9" y1="447" x2="139" y2="447" stroke="#f46d43" stroke-width="1"/>
	<text x="16" y="439.7" fill="#000000" font-family="Verdana" font-size="12">1_PEUT CONTENIR</text>
</g>

<!-- Entity PROJECT -->
<g id="entity-PROJECT">
	<g id="frame-PROJECT">
		<rect x="17" y="177" width="114" height="25" fill="#abd9e9" stroke="#abd9e9" stroke-width="0"/>
		<rect x="17" y="202.0" width="114" height="195" fill="#e0f3f8" stroke="#e0f3f8" stroke-width="0"/>
		<rect x="17" y="177" width="114" height="220" fill="none" stroke="#74add1" stroke-width="2"/>
		<line x1="17" y1="202" x2="131" y2="202" stroke="#74add1" stroke-width="1"/>
	</g>
	<text x="46" y="194.7" fill="#000000" font-family="Verdana" font-size="12">PROJECT</text>
	<text x="22" y="219.7" fill="#000000" font-family="Verdana" font-size="12">title</text>
	<line x1="22" y1="222" x2="46" y2="222" stroke="#000000" stroke-width="1"/>
	<text x="22" y="236.7" fill="#000000" font-family="Verdana" font-size="12">content</text>
	<text x="22" y="253.7" fill="#000000" font-family="Verdana" font-size="12">project reference</text>
	<text x="22" y="270.7" fill="#000000" font-family="Verdana" font-size="12">moa</text>
	<text x="22" y="287.8" fill="#000000" font-family="Verdana" font-size="12">moe</text>
	<text x="22" y="304.8" fill="#000000" font-family="Verdana" font-size="12">date</text>
	<text x="22" y="321.8" fill="#000000" font-family="Verdana" font-size="12">mission</text>
	<text x="22" y="338.8" fill="#000000" font-family="Verdana" font-size="12">performance</text>
	<text x="22" y="355.8" fill="#000000" font-family="Verdana" font-size="12">size</text>
	<text x="22" y="372.8" fill="#000000" font-family="Verdana" font-size="12">cost</text>
	<text x="22" y="389.8" fill="#000000" font-family="Verdana" font-size="12">role</text>
</g>

<!-- Entity PROFIL PICTURE -->
<g id="entity-PROFIL PICTURE">
	<g id="frame-PROFIL PICTURE">
		<rect x="18" y="497" width="112" height="25" fill="#abd9e9" stroke="#abd9e9" stroke-width="0"/>
		<rect x="18" y="522.0" width="112" height="93" fill="#e0f3f8" stroke="#e0f3f8" stroke-width="0"/>
		<rect x="18" y="497" width="112" height="118" fill="none" stroke="#74add1" stroke-width="2"/>
		<line x1="18" y1="522" x2="130" y2="522" stroke="#74add1" stroke-width="1"/>
	</g>
	<text x="23" y="514.7" fill="#000000" font-family="Verdana" font-size="12">PROFIL PICTURE</text>
	<text x="23" y="539.7" fill="#000000" font-family="Verdana" font-size="12">key</text>
	<line x1="23" y1="542" x2="45" y2="542" stroke="#000000" stroke-width="1"/>
	<text x="23" y="556.8" fill="#000000" font-family="Verdana" font-size="12">filename</text>
	<text x="23" y="573.8" fill="#000000" font-family="Verdana" font-size="12">content_type</text>
	<text x="23" y="590.8" fill="#000000" font-family="Verdana" font-size="12">metadata</text>
	<text x="23" y="607.8" fill="#000000" font-family="Verdana" font-size="12">byte_size</text>
</g>

<!-- Entity CONTENT PICTURE -->
<g id="entity-CONTENT PICTURE">
	<g id="frame-CONTENT PICTURE">
		<rect x="173" y="497" width="126" height="25" fill="#abd9e9" stroke="#abd9e9" stroke-width="0"/>
		<rect x="173" y="522.0" width="126" height="93" fill="#e0f3f8" stroke="#e0f3f8" stroke-width="0"/>
		<rect x="173" y="497" width="126" height="118" fill="none" stroke="#74add1" stroke-width="2"/>
		<line x1="173" y1="522" x2="299" y2="522" stroke="#74add1" stroke-width="1"/>
	</g>
	<text x="178" y="514.7" fill="#000000" font-family="Verdana" font-size="12">CONTENT PICTURE</text>
	<text x="178" y="539.7" fill="#000000" font-family="Verdana" font-size="12">key</text>
	<line x1="178" y1="542" x2="200" y2="542" stroke="#000000" stroke-width="1"/>
	<text x="178" y="556.8" fill="#000000" font-family="Verdana" font-size="12">filename</text>
	<text x="178" y="573.8" fill="#000000" font-family="Verdana" font-size="12">content_type</text>
	<text x="178" y="590.8" fill="#000000" font-family="Verdana" font-size="12">metadata</text>
	<text x="178" y="607.8" fill="#000000" font-family="Verdana" font-size="12">byte_size</text>
</g>

<!-- Entity USER -->
<g id="entity-USER">
	<g id="frame-USER">
		<rect x="40" y="9" width="68" height="25" fill="#abd9e9" stroke="#abd9e9" stroke-width="0"/>
		<rect x="40" y="34.0" width="68" height="43" fill="#e0f3f8" stroke="#e0f3f8" stroke-width="0"/>
		<rect x="40" y="9" width="68" height="68" fill="none" stroke="#74add1" stroke-width="2"/>
		<line x1="40" y1="34" x2="108" y2="34" stroke="#74add1" stroke-width="1"/>
	</g>
	<text x="57" y="26.7" fill="#000000" font-family="Verdana" font-size="12">USER</text>
	<text x="45" y="51.8" fill="#000000" font-family="Verdana" font-size="12">name</text>
	<line x1="45" y1="54" x2="80" y2="54" stroke="#000000" stroke-width="1"/>
	<text x="45" y="68.8" fill="#000000" font-family="Verdana" font-size="12">password</text>
</g>
</svg>